<svg xmlns="http://www.w3.org/2000/svg" viewBox="0 0 100 100">
  <!-- Chocolate brown cat -->
  <circle cx="50" cy="50" r="50" fill="#5A3828"/>
  <!-- Ears -->
  <path d="M22,36 Q16,12 31,6 Q44,12 38,34" fill="#4A2818"/>
  <path d="M62,34 Q56,12 69,6 Q84,12 78,36" fill="#4A2818"/>
  <path d="M26,33 Q22,16 31,11 Q40,16 36,32" fill="#6A4838"/>
  <path d="M64,32 Q60,16 69,11 Q78,16 74,33" fill="#6A4838"/>
  <!-- Face -->
  <ellipse cx="50" cy="54" rx="28" ry="26" fill="#6A4230"/>
  <!-- Lighter muzzle -->
  <ellipse cx="50" cy="62" rx="13" ry="11" fill="#8A6248"/>
  <!-- Eyes - bright copper -->
  <ellipse cx="38" cy="48" rx="6" ry="6" fill="#D88020"/>
  <ellipse cx="62" cy="48" rx="6" ry="6" fill="#D88020"/>
  <ellipse cx="39" cy="47" rx="2.5" ry="3.5" fill="#1A1A2E"/>
  <ellipse cx="63" cy="47" rx="2.5" ry="3.5" fill="#1A1A2E"/>
  <circle cx="40.5" cy="45.5" r="1.3" fill="#F0B050"/>
  <circle cx="64.5" cy="45.5" r="1.3" fill="#F0B050"/>
  <!-- Nose -->
  <ellipse cx="50" cy="56" rx="3" ry="2" fill="#4A2828"/>
  <!-- Mouth -->
  <path d="M47,58 Q50,62 53,58" fill="none" stroke="#3A2020" stroke-width="1" stroke-linecap="round"/>
  <!-- Whiskers -->
  <line x1="12" y1="54" x2="35" y2="56" stroke="#7A5A48" stroke-width="0.7"/>
  <line x1="12" y1="59" x2="35" y2="59" stroke="#7A5A48" stroke-width="0.7"/>
  <line x1="65" y1="56" x2="88" y2="54" stroke="#7A5A48" stroke-width="0.7"/>
  <line x1="65" y1="59" x2="88" y2="59" stroke="#7A5A48" stroke-width="0.7"/>
</svg>
