<svg xmlns="http://www.w3.org/2000/svg" viewBox="0 0 100 100">
  <!-- Husky (gray/white, blue eyes) -->
  <circle cx="50" cy="50" r="50" fill="#7A8090"/>
  <!-- Perky ears -->
  <path d="M22,38 Q17,12 34,10 Q42,18 37,36" fill="#606870"/>
  <path d="M63,36 Q58,18 66,10 Q83,12 78,38" fill="#606870"/>
  <path d="M25,35 Q22,16 34,14 Q39,20 36,34" fill="#C0C0C0"/>
  <path d="M64,34 Q61,20 66,14 Q78,16 75,35" fill="#C0C0C0"/>
  <!-- Face -->
  <ellipse cx="50" cy="52" rx="28" ry="27" fill="#8A9098"/>
  <!-- White mask -->
  <path d="M36,36 Q50,30 64,36 L62,60 Q50,72 38,60 Z" fill="#F0F0F0"/>
  <!-- White muzzle -->
  <ellipse cx="50" cy="64" rx="14" ry="12" fill="#F5F5F5"/>
  <!-- Eyes - icy blue -->
  <ellipse cx="38" cy="46" rx="5.5" ry="5.5" fill="#58B0E8"/>
  <ellipse cx="62" cy="46" rx="5.5" ry="5.5" fill="#58B0E8"/>
  <ellipse cx="39" cy="45" rx="2.5" ry="3" fill="#1A1A2E"/>
  <ellipse cx="63" cy="45" rx="2.5" ry="3" fill="#1A1A2E"/>
  <circle cx="40.5" cy="43.5" r="1.3" fill="white"/>
  <circle cx="64.5" cy="43.5" r="1.3" fill="white"/>
  <!-- Nose -->
  <ellipse cx="50" cy="57" rx="5" ry="3.5" fill="#1A1A1A"/>
  <!-- Mouth -->
  <path d="M46,61 Q50,66 54,61" fill="none" stroke="#888" stroke-width="1" stroke-linecap="round"/>
</svg>
