<svg xmlns="http://www.w3.org/2000/svg" viewBox="0 0 100 100">
  <!-- White Poodle (fluffy) -->
  <circle cx="50" cy="50" r="50" fill="#E8E0D8"/>
  <!-- Fluffy head poof -->
  <circle cx="38" cy="28" r="10" fill="#F0EAE4"/>
  <circle cx="62" cy="28" r="10" fill="#F0EAE4"/>
  <circle cx="50" cy="24" r="11" fill="#F0EAE4"/>
  <circle cx="44" cy="22" r="8" fill="#F5F0EB"/>
  <circle cx="56" cy="22" r="8" fill="#F5F0EB"/>
  <circle cx="50" cy="18" r="7" fill="#F5F0EB"/>
  <!-- Floppy fluffy ears -->
  <ellipse cx="22" cy="46" rx="12" ry="17" fill="#E0D8D0"/>
  <circle cx="18" cy="42" r="6" fill="#E8E0D8"/>
  <circle cx="20" cy="50" r="7" fill="#E8E0D8"/>
  <circle cx="16" cy="54" r="5" fill="#E0D8D0"/>
  <ellipse cx="78" cy="46" rx="12" ry="17" fill="#E0D8D0"/>
  <circle cx="82" cy="42" r="6" fill="#E8E0D8"/>
  <circle cx="80" cy="50" r="7" fill="#E8E0D8"/>
  <circle cx="84" cy="54" r="5" fill="#E0D8D0"/>
  <!-- Face -->
  <ellipse cx="50" cy="52" rx="26" ry="25" fill="#F0EAE4"/>
  <!-- Muzzle -->
  <ellipse cx="50" cy="62" rx="13" ry="11" fill="#F5F0EB"/>
  <!-- Eyes -->
  <ellipse cx="39" cy="46" rx="4" ry="4.5" fill="#2A1A0A"/>
  <ellipse cx="61" cy="46" rx="4" ry="4.5" fill="#2A1A0A"/>
  <circle cx="40" cy="44.5" r="1.3" fill="#5A3A20"/>
  <circle cx="62" cy="44.5" r="1.3" fill="#5A3A20"/>
  <!-- Nose -->
  <ellipse cx="50" cy="56" rx="4" ry="3" fill="#1A1A1A"/>
  <!-- Mouth -->
  <path d="M46,60 Q50,64 54,60" fill="none" stroke="#A09088" stroke-width="1" stroke-linecap="round"/>
</svg>
